<?xml version="1.0" encoding="UTF-8"?>
<svg id="b" data-name="Layer 2" xmlns="http://www.w3.org/2000/svg" width="128" height="128" viewBox="0 0 128 128">
  <g id="c" data-name="Layer 1">
    <rect width="128" height="128" rx="14.372" ry="14.372" fill="#7116f1" stroke-width="0"/>
    <path d="M100.788,31.628H27.212c-6.733,0-12.212,5.479-12.212,12.212v40.32c0,6.733,5.479,12.212,12.212,12.212h73.467c6.795,0,12.322-5.527,12.322-12.322v-40.21c0-6.733-5.479-12.212-12.212-12.212ZM74.412,43.727c0-1.353,1.097-2.45,2.45-2.45h7.35c1.353,0,2.45,1.097,2.45,2.45v7.471c0,1.353-1.097,2.45-2.45,2.45h-7.35c-1.353,0-2.45-1.097-2.45-2.45v-7.471ZM78.394,60.264v7.471c0,1.353-1.097,2.45-2.45,2.45h-7.35c-1.353,0-2.45-1.097-2.45-2.45v-7.471c0-1.353,1.097-2.45,2.45-2.45h7.35c1.353,0,2.45,1.097,2.45,2.45ZM57.875,43.727c0-1.353,1.097-2.45,2.45-2.45h7.35c1.353,0,2.45,1.097,2.45,2.45v7.471c0,1.353-1.097,2.45-2.45,2.45h-7.35c-1.353,0-2.45-1.097-2.45-2.45v-7.471ZM61.856,60.264v7.471c0,1.353-1.097,2.45-2.45,2.45h-7.35c-1.353,0-2.45-1.097-2.45-2.45v-7.471c0-1.353,1.097-2.45,2.45-2.45h7.35c1.353,0,2.45,1.097,2.45,2.45ZM41.338,43.727c0-1.353,1.097-2.45,2.45-2.45h7.35c1.353,0,2.45,1.097,2.45,2.45v7.471c0,1.353-1.097,2.45-2.45,2.45h-7.35c-1.353,0-2.45-1.097-2.45-2.45v-7.471ZM24.8,43.727c0-1.353,1.097-2.45,2.45-2.45h7.35c1.353,0,2.45,1.097,2.45,2.45v7.471c0,1.353-1.097,2.45-2.45,2.45h-7.35c-1.353,0-2.45-1.097-2.45-2.45v-7.471ZM24.8,60.264c0-1.353,1.097-2.45,2.45-2.45h15.619c1.353,0,2.45,1.097,2.45,2.45v7.471c0,1.353-1.097,2.45-2.45,2.45h-15.619c-1.353,0-2.45-1.097-2.45-2.45v-7.471ZM37.05,84.212c0,1.353-1.097,2.45-2.45,2.45h-7.35c-1.353,0-2.45-1.097-2.45-2.45v-7.593c0-1.353,1.097-2.45,2.45-2.45h7.35c1.353,0,2.45,1.097,2.45,2.45v7.593ZM86.662,84.273c0,1.353-1.097,2.45-2.45,2.45h-40.425c-1.353,0-2.45-1.097-2.45-2.45v-7.471c0-1.353,1.097-2.45,2.45-2.45h40.425c1.353,0,2.45,1.097,2.45,2.45v7.471ZM103.2,84.212c0,1.353-1.097,2.45-2.45,2.45h-7.35c-1.353,0-2.45-1.097-2.45-2.45v-7.593c0-1.353,1.097-2.45,2.45-2.45h7.35c1.353,0,2.45,1.097,2.45,2.45v7.593ZM103.2,67.736c0,1.353-1.097,2.45-2.45,2.45h-15.619c-1.353,0-2.45-1.097-2.45-2.45v-7.471c0-1.353,1.097-2.45,2.45-2.45h15.619c1.353,0,2.45,1.097,2.45,2.45v7.471ZM103.2,51.198c0,1.353-1.097,2.45-2.45,2.45h-7.35c-1.353,0-2.45-1.097-2.45-2.45v-7.471c0-1.353,1.097-2.45,2.45-2.45h7.35c1.353,0,2.45,1.097,2.45,2.45v7.471Z" fill="#fff" stroke-width="0"/>
  </g>
</svg>